<svg width="360" height="451" viewBox="0 0 360 451" fill="none" xmlns="http://www.w3.org/2000/svg">
<path opacity="0.25" d="M-846.332 0L-744.355 16.7559C-642.377 32.8854 -438.421 67.3368 -234.466 58.4108C-30.5103 50.1111 173.445 1.49343e-06 377.401 16.7559C581.356 32.8854 785.312 117.448 989.267 142.034C1193.22 167.559 1397.18 133.108 1601.13 150.333C1805.09 167.559 2009.04 233.33 2111.02 267.311L2213 300.667V451H2111.02C2009.04 451 1805.09 451 1601.13 451C1397.18 451 1193.22 451 989.267 451C785.312 451 581.356 451 377.401 451C173.445 451 -30.5103 451 -234.466 451C-438.421 451 -642.377 451 -744.355 451H-846.332V0Z" fill="#006633"/>
<path opacity="0.25" d="M-950.435 250.556L-848.457 258.855C-746.479 267.781 -542.524 283.441 -338.568 250.556C-134.613 217.67 69.3428 133.108 273.298 116.978C477.254 100.222 681.209 150.333 885.165 192.145C1089.12 233.33 1293.08 267.781 1497.03 233.8C1700.99 200.444 1904.94 100.222 2006.92 50.1111L2108.9 0V451H2006.92C1904.94 451 1700.99 451 1497.03 451C1293.08 451 1089.12 451 885.165 451C681.209 451 477.254 451 273.298 451C69.3428 451 -134.613 451 -338.568 451C-542.524 451 -746.479 451 -848.457 451H-950.435V250.556Z" fill="#006633"/>
<path opacity="0.25" d="M-1209.63 400.89L-1107.65 375.835C-1005.67 350.78 -801.717 300.671 -597.761 258.86C-393.806 217.676 -189.851 183.226 14.105 208.751C218.06 233.336 422.016 317.896 625.971 342.481C829.927 368.006 1033.88 333.555 1237.84 342.481C1441.79 350.78 1645.75 400.89 1747.73 425.945L1849.7 451H1747.73C1645.75 451 1441.79 451 1237.84 451C1033.88 451 829.927 451 625.971 451C422.016 451 218.06 451 14.105 451C-189.851 451 -393.806 451 -597.761 451C-801.717 451 -1005.67 451 -1107.65 451H-1209.63V400.89Z" fill="#006633"/>
<path opacity="0.25" d="M-1796 50L-1694.02 83.3645C-1592.04 117.355 -1388.09 183.145 -1184.13 208.677C-980.178 233.27 -776.223 217.605 -572.267 233.739C-368.312 250.5 -164.356 300.625 39.5993 283.864C243.555 267.73 447.51 183.145 651.466 183.614C855.421 183.145 1059.38 267.73 1161.35 308.927L1263.33 350.75V451H1161.35C1059.38 451 855.421 451 651.466 451C447.51 451 243.555 451 39.5993 451C-164.356 451 -368.312 451 -572.267 451C-776.223 451 -980.178 451 -1184.13 451C-1388.09 451 -1592.04 451 -1694.02 451H-1796V50Z" fill="#006633"/>
</svg>
